<svg xmlns="http://www.w3.org/2000/svg" width="11" height="21"><defs><filter id="a"><feFlood flood-color="#6E774A" flood-opacity="1" result="floodOut"/><feComposite operator="atop" in="floodOut" in2="SourceGraphic" result="compOut"/><feBlend in="compOut" in2="SourceGraphic"/></filter></defs><g filter="url(#a)"><path fill-rule="evenodd" d="M10.586.004L7.947-.001c-2.964 0-4.879 2.029-4.879 5.168v2.384H.415A.421.421 0 000 7.979v3.452c0 .237.186.429.415.429h2.652v8.712c0 .236.186.428.415.428h3.461c.23 0 .415-.192.415-.428V11.86h3.102a.422.422 0 00.415-.429l.001-3.452a.434.434 0 00-.122-.303.407.407 0 00-.293-.125H7.358V5.53c0-.971.225-1.463 1.45-1.463l1.777-.001A.422.422 0 0011 3.638V.432a.422.422 0 00-.414-.428z"/></g></svg>