<svg xmlns="http://www.w3.org/2000/svg" width="16" height="17"><defs><filter id="a"><feFlood flood-color="#6E774A" flood-opacity="1" result="floodOut"/><feComposite operator="atop" in="floodOut" in2="SourceGraphic" result="compOut"/><feBlend in="compOut" in2="SourceGraphic"/></filter></defs><g filter="url(#a)"><path fill-rule="evenodd" d="M15.292 6.11l-4.407-.412a.76.76 0 01-.631-.463L8.675 1.451c-.252-.624-1.149-.624-1.401 0L5.708 5.235a.744.744 0 01-.631.463L.67 6.11a.752.752 0 00-.429 1.311l3.321 2.885a.743.743 0 01.24.736l-.998 4.046c-.151.638.543 1.162 1.124.825l3.674-2.136a.775.775 0 01.771 0l3.674 2.136a.757.757 0 001.123-.825l-.984-4.046a.74.74 0 01.239-.736l3.321-2.885c.48-.437.202-1.249-.454-1.311z"/></g></svg>