<svg xmlns="http://www.w3.org/2000/svg" width="22" height="18"><defs><filter id="a"><feFlood flood-color="#6E774A" flood-opacity="1" result="floodOut"/><feComposite operator="atop" in="floodOut" in2="SourceGraphic" result="compOut"/><feBlend in="compOut" in2="SourceGraphic"/></filter></defs><g filter="url(#a)"><path fill-rule="evenodd" d="M21.393.332a9.036 9.036 0 01-2.868 1.104A4.484 4.484 0 0015.232 0c-2.493 0-4.514 2.035-4.514 4.544 0 .356.04.703.117 1.035C7.084 5.39 3.758 3.58 1.532.83a4.549 4.549 0 00-.61 2.285c0 1.577.798 2.968 2.007 3.783a4.487 4.487 0 01-2.044-.571v.057a4.542 4.542 0 003.62 4.457 4.52 4.52 0 01-1.189.16c-.291 0-.573-.03-.85-.083.575 1.806 2.241 3.12 4.215 3.157a9.014 9.014 0 01-5.604 1.945c-.365 0-.724-.022-1.077-.062A12.723 12.723 0 006.918 18c8.302 0 12.841-6.926 12.841-12.932l-.015-.59A9.083 9.083 0 0022 2.129a8.96 8.96 0 01-2.591.716A4.559 4.559 0 0021.393.332z"/></g></svg>